<?xml version="1.0" encoding="utf-8"?>
<!-- Generator: Adobe Illustrator 26.5.3, SVG Export Plug-In . SVG Version: 6.00 Build 0)  -->
<svg version="1.1" id="Layer_1" xmlns="http://www.w3.org/2000/svg" xmlns:xlink="http://www.w3.org/1999/xlink" x="0px" y="0px"
	 viewBox="0 0 988.8 141.8" style="enable-background:new 0 0 988.8 141.8;" xml:space="preserve">
<g>
	<path d="M228.6,93.6l-30.2-50.9h29.7l12.7,24.3h1.4L255,42.8h29.7l-30.2,50.9v27.9h-25.9V93.6z"/>
	<path d="M287.5,42.8h66.8V63h-41.3v9h41.3v20.3h-41.3v9h41.3v20.3h-66.8V42.8z"/>
	<path d="M362.1,42.8H388v58.5h31.2v20.3h-57.1V42.8z"/>
	<path d="M425.4,42.8h25.9v58.5h31.2v20.3h-57.1V42.8z"/>
	<path d="M483.6,82.1c0-24.9,18.5-41,42.3-41c23.9,0,42.3,16.1,42.3,41c0,26-18.5,41.2-42.3,41.2
		C502.1,123.3,483.6,108.1,483.6,82.1z M541.6,82.1c0-9.7-6.3-16.7-15.9-16.7c-9.6,0-15.9,7-15.9,16.7c0,9.8,6.3,16.8,15.9,16.8
		C535.3,98.8,541.6,91.8,541.6,82.1z"/>
	<path d="M567.1,42.8H594l8.6,48h1.6l16.5-27.1h1.6l16.5,27.1h1.6l8.6-48h27l-16.2,78.8h-24.9l-12.6-19.8h-1.6l-12.6,19.8h-24.8
		L567.1,42.8z"/>
	<path d="M718.2,42.8h24.4l19.8,25h1.1l19.8-25h24.4v78.8H783V76.2h-1.1l-18.4,23.9h-1.1l-18.4-23.9H743v45.4h-24.8V42.8z"/>
	<path d="M832.7,42.8h43l19.8,78.8h-25.8l-3-12.4h-25l-3,12.4h-25.8L832.7,42.8z M846.3,89.8H862L855.4,63h-2.6L846.3,89.8z"/>
	<path d="M900.6,42.8h38.6c22.7,0,39.9,13.6,39.9,39.5s-17.1,39.3-39.9,39.3h-38.6V42.8z M936.4,101.3c12.4,0,17.8-7.4,17.8-19.1
		c0-11.7-5.4-19.1-18.7-19.1h-9.1v38.3H936.4z"/>
</g>
<g>
	<polygon points="164,10.3 164.3,98.3 121.6,133.5 121.6,133.8 103,133.8 102.9,118.2 140,86.9 139.9,60.4 87.3,102.9 34.3,60.4 
		34.4,87.7 71.7,118.5 71.8,133.8 52.9,133.8 52.9,133.6 10.2,99.2 9.9,10.3 87.2,72.6 	"/>
</g>
</svg>
